<svg width="23" height="22" viewBox="0 0 23 22" fill="none" xmlns="http://www.w3.org/2000/svg">
<path d="M15.1015 21.8625C13.0338 21.8625 11.2985 20.3625 10.8923 18.375H0.849231C0.406154 18.375 0 18 0 17.5125C0 17.025 0.369231 16.65 0.849231 16.65H10.8923C11.2985 14.7 13.0338 13.2 15.1015 13.2C17.1692 13.2 18.9046 14.7 19.3108 16.6875H21.5262C21.9692 16.6875 22.3754 17.0625 22.3754 17.55C22.3754 18.0375 22.0062 18.4125 21.5262 18.4125H19.3108C18.9046 20.3625 17.1692 21.8625 15.1015 21.8625ZM15.1015 14.8875C13.6615 14.8875 12.48 16.0875 12.48 17.5125C12.48 18.9375 13.6615 20.1375 15.1015 20.1375C16.5415 20.1375 17.7231 18.9375 17.7231 17.5125C17.7231 16.0875 16.5415 14.8875 15.1015 14.8875ZM8.60308 15.2625C6.53539 15.2625 4.8 13.7625 4.39385 11.775H0.849231C0.406154 11.775 0 11.4 0 10.9125C0 10.4625 0.369231 10.05 0.849231 10.05H4.39385C4.8 8.0625 6.53539 6.5625 8.60308 6.5625C10.6708 6.5625 12.4062 8.0625 12.8123 10.05H21.5631C22.0062 10.05 22.4123 10.425 22.4123 10.9125C22.4123 11.3625 22.0431 11.775 21.5631 11.775H12.7754C12.4062 13.7625 10.6708 15.2625 8.60308 15.2625ZM8.60308 8.325C7.16308 8.325 5.98154 9.525 5.98154 10.95C5.98154 12.4125 7.16308 13.575 8.60308 13.575C10.0431 13.575 11.2246 12.375 11.2246 10.95C11.2246 9.4875 10.0431 8.325 8.60308 8.325ZM18.0923 8.7C16.0246 8.7 14.2892 7.2 13.8831 5.2125H0.849231C0.406154 5.2125 0 4.8375 0 4.35C0 3.8625 0.369231 3.4875 0.849231 3.4875H13.8831C14.2892 1.5 16.0246 0 18.0923 0C20.4554 0 22.3754 1.95 22.3754 4.3125C22.3754 6.675 20.4554 8.7 18.0923 8.7ZM18.0923 1.725C16.6523 1.725 15.4708 2.925 15.4708 4.35C15.4708 5.775 16.6523 6.975 18.0923 6.975C19.5323 6.975 20.7138 5.775 20.7138 4.35C20.7138 2.925 19.5323 1.725 18.0923 1.725Z" fill="white"/>
</svg>
